<svg width="67" height="67" viewBox="0 0 67 67" fill="none" xmlns="http://www.w3.org/2000/svg">
<circle cx="33.5" cy="33.5" r="33.5" fill="#F6BA1B" fill-opacity="0.4"/>
<path d="M39 39H42C42.5 39 43 38.5 43 38V27.5C43 27 42.5 26.5 42 26.5H39C38.5 26.5 38 27 38 27.5V38C38 38.5 38.5 39 39 39ZM46.5 39H49.5C50 39 50.5 38.5 50.5 38V20C50.5 19.5 50 19 49.5 19H46.5C46 19 45.5 19.5 45.5 20V38C45.5 38.5 46 39 46.5 39ZM24 39H27C27.5 39 28 38.5 28 38V32.5C28 32 27.5 31.5 27 31.5H24C23.5 31.5 23 32 23 32.5V38C23 38.5 23.5 39 24 39ZM31.5 39H34.5C35 39 35.5 38.5 35.5 38V22.5C35.5 22 35 21.5 34.5 21.5H31.5C31 21.5 30.5 22 30.5 22.5V38C30.5 38.5 31 39 31.5 39ZM51.75 44H18V20.25C18 19.5594 17.4406 19 16.75 19H14.25C13.5594 19 13 19.5594 13 20.25V46.5C13 47.8805 14.1195 49 15.5 49H51.75C52.4406 49 53 48.4406 53 47.75V45.25C53 44.5594 52.4406 44 51.75 44Z" fill="#F6BA1B"/>
</svg>
