<svg width="67" height="67" viewBox="0 0 67 67" fill="none" xmlns="http://www.w3.org/2000/svg">
<circle cx="33.5" cy="33.5" r="33.5" fill="#F6BA1B" fill-opacity="0.4"/>
<path d="M34.4578 31.5556C28.8831 30.2444 27.0904 28.8889 27.0904 26.7778C27.0904 24.3556 29.5707 22.6667 33.721 22.6667C38.0923 22.6667 39.7132 24.5556 39.8605 27.3333H45.2878C45.1159 23.5111 42.5373 20 37.4047 18.8667V14H30.0373V18.8C25.2731 19.7333 21.442 22.5333 21.442 26.8222C21.442 31.9556 26.1326 34.5111 32.9843 36C39.1238 37.3333 40.3517 39.2889 40.3517 41.3556C40.3517 42.8889 39.1483 45.3333 33.721 45.3333C28.6621 45.3333 26.6729 43.2889 26.4028 40.6667H21C21.2947 45.5333 25.3222 48.2667 30.0373 49.1778V54H37.4047V49.2222C42.1935 48.4 46 45.8889 46 41.3333C46 35.0222 40.0324 32.8667 34.4578 31.5556Z" fill="#F6BA1B"/>
</svg>
