<svg width="67" height="67" viewBox="0 0 67 67" fill="none" xmlns="http://www.w3.org/2000/svg">
<circle cx="33.5" cy="33.5" r="33.5" fill="#F6BA1B" fill-opacity="0.4"/>
<path d="M41.7168 23.2005C43.4362 21.1339 44.4695 18.4721 44.4695 15.7194C44.4695 14.777 43.6925 14 42.7501 14H24.2581C23.3158 14 22.5387 14.777 22.5387 15.7194C22.5387 18.4721 23.4811 21.1339 25.2914 23.2005C19.6124 26.5567 16 33.2607 16 40.6592C16 53.0423 25.9776 54.5054 33.4587 54.5054C40.9398 54.5054 50.9173 53.0423 51 40.6592C51 33.3517 47.3876 26.6393 41.7168 23.2005ZM33.4587 51.0666C23.4811 51.0666 19.3562 48.0576 19.3562 40.6592C19.3562 34.1205 22.7123 28.1934 27.9532 25.606C28.6393 25.2589 29.1601 24.5727 29.2428 23.804C29.3255 23.0269 29.0692 22.1672 28.4658 21.6547C27.2589 20.5387 26.3991 19.0756 26.0602 17.4388H40.8488C40.5017 19.0756 39.6419 20.5387 38.4433 21.6547C37.8399 22.1672 37.5836 23.0269 37.6663 23.804C37.7489 24.581 38.2697 25.2671 38.9558 25.606C44.205 28.1852 47.5529 34.1205 47.5529 40.6592C47.5612 48.0576 43.4362 51.0666 33.4587 51.0666Z" fill="#F6BA1B"/>
<path d="M37.8314 40.4113C37.8314 38.0223 35.8888 36.0797 33.4998 36.0797C32.5574 36.0797 31.7887 35.3109 31.7887 34.3685C31.7887 33.4261 32.5574 32.6574 33.4998 32.6574C33.9793 32.6574 34.4174 32.8475 34.748 33.1947C35.244 33.7237 36.0789 33.7485 36.5997 33.2525C37.1288 32.7566 37.1536 31.9217 36.6576 31.4009C36.1533 30.8636 35.5086 30.4668 34.8142 30.2436V29.4831C34.8142 28.7556 34.2273 28.1687 33.4998 28.1687C32.7724 28.1687 32.1855 28.7556 32.1855 29.4831V30.2436C30.433 30.7974 29.1682 32.4424 29.1682 34.3768C29.1682 36.7658 31.1108 38.7084 33.4998 38.7084C34.4422 38.7084 35.211 39.4772 35.211 40.4195C35.211 41.3619 34.4422 42.1307 33.4998 42.1307C33.0204 42.1307 32.5822 41.9405 32.2516 41.5934C31.7556 41.0643 30.9207 41.0395 30.3999 41.5355C29.8709 42.0315 29.8461 42.8664 30.342 43.3872C30.8463 43.9245 31.4911 44.3213 32.1855 44.5445V45.305C32.1855 46.0324 32.7724 46.6193 33.4998 46.6193C34.2273 46.6193 34.8142 46.0324 34.8142 45.305V44.5445C36.5584 43.9824 37.8314 42.3373 37.8314 40.4113Z" fill="#F6BA1B"/>
</svg>
